<svg xmlns="http://www.w3.org/2000/svg" width="256" height="256" viewBox="0 0 256 256" role="img" aria-label="BT">
  <defs>
    <linearGradient id="y" x1="0" y1="0" x2="1" y2="0">
      <stop offset="0" stop-color="#f6b400"/>
      <stop offset="1" stop-color="#ffcc33"/>
    </linearGradient>
  </defs>
  <rect width="256" height="256" rx="36" fill="#0b0b0c"/>
  <circle cx="128" cy="128" r="86" fill="#ffffff"/>
  <g transform="translate(38 56)">
    <path d="M60 44c0-24 20-44 44-44h22c24 0 44 20 44 44v8c0 16-9 30-22 38 13 8 22 22 22 38v10c0 24-20 44-44 44h-22c-24 0-44-20-44-44V44Z" fill="#0b0b0c" opacity="0.06"/>
  </g>
  <g transform="translate(38 56)">
    <path d="M30 120c-5-26 7-52 28-66l12-8 10-24 16 18 44-4 14 22 18 10c18 10 29 30 26 50-3 25-24 46-55 50-11 2-21 2-32-1-12-3-24-2-35 1-31 8-58-6-62-28Z" fill="#0b0b0c"/>
    <ellipse cx="78" cy="120" rx="14" ry="18" fill="#ffffff"/>
    <ellipse cx="126" cy="120" rx="14" ry="18" fill="#ffffff"/>
    <circle cx="102" cy="140" r="6" fill="#f59aa8"/>
    <path d="M80 150c14 10 32 10 46 0" fill="none" stroke="#ffffff" stroke-width="10" stroke-linecap="round"/>
  </g>
  <g transform="translate(44 168)">
    <path d="M46 22h120c10 0 18 8 18 18v20H28V40c0-10 8-18 18-18Z" fill="#0b0b0c" stroke="url(#y)" stroke-width="6"/>
    <text x="52" y="55" font-family="Arial Black, Arial, sans-serif" font-size="42" fill="#ffffff">B</text>
    <text x="92" y="55" font-family="Arial Black, Arial, sans-serif" font-size="42" fill="url(#y)">T</text>
  </g>
</svg>
